<svg xmlns="http://www.w3.org/2000/svg" version="1.1" xmlns:xlink="http://www.w3.org/1999/xlink" xmlns:svgjs="http://svgjs.dev/svgjs" width="128" height="128" viewBox="0 0 128 128"><g transform="matrix(0.8046875,0,0,0.8046875,12.333870967741937,12.333870967741937)"><svg viewBox="0 0 155 155" data-background-color="#ffffff" preserveAspectRatio="xMidYMid meet" height="128" width="128" xmlns="http://www.w3.org/2000/svg" xmlns:xlink="http://www.w3.org/1999/xlink"><g id="tight-bounds" transform="matrix(1,0,0,1,0.25,0.25)"><svg viewBox="0 0 154.5 154.5" height="154.5" width="154.5"><g><svg></svg></g><g><svg viewBox="0 0 154.5 154.5" height="154.5" width="154.5"><g transform="matrix(1,0,0,1,59.016757278,64.14044080234343)"><svg viewBox="0 0 36.46648544399999 26.21911839531312" height="26.21911839531312" width="36.46648544399999"><g><svg viewBox="0 0 36.46648544399999 26.21911839531312" height="26.21911839531312" width="36.46648544399999"><g><svg viewBox="0 0 36.46648544399999 26.21911839531312" height="26.21911839531312" width="36.46648544399999"><g><svg viewBox="0 0 36.46648544399999 26.21911839531312" height="26.21911839531312" width="36.46648544399999"><g><svg viewBox="0 0 36.46648544399999 26.21911839531312" height="26.21911839531312" width="36.46648544399999"><g><svg viewBox="0 0 36.46648544399999 26.21911839531312" height="26.21911839531312" width="36.46648544399999"><g><svg xmlns="http://www.w3.org/2000/svg" xmlns:xlink="http://www.w3.org/1999/xlink" version="1.1" x="0" y="0" viewBox="9.666 21.00033765356684 80.668 57.999662346433155" enable-background="new 0 0 100 100" xml:space="preserve" height="26.21911839531312" width="36.46648544399999" class="icon-icon-0" data-fill-palette-color="accent" id="icon-0"><path d="M32.951 28.716c-0.781-0.781-2.047-0.781-2.828 0l-19.871 19.87C9.877 48.961 9.666 49.47 9.666 50s0.211 1.039 0.586 1.414l19.871 19.87c0.391 0.391 0.902 0.586 1.414 0.586s1.023-0.195 1.414-0.586c0.781-0.781 0.781-2.047 0-2.828L14.494 50l18.457-18.456C33.732 30.763 33.732 29.497 32.951 28.716zM89.748 48.586l-19.871-19.87c-0.781-0.781-2.047-0.781-2.828 0s-0.781 2.047 0 2.828L85.506 50 67.049 68.456c-0.781 0.781-0.781 2.047 0 2.828 0.391 0.391 0.902 0.586 1.414 0.586s1.023-0.195 1.414-0.586l19.871-19.87c0.375-0.375 0.586-0.884 0.586-1.414S90.123 48.961 89.748 48.586zM63.208 21.182c-1.002-0.458-2.191-0.021-2.651 0.985l-24.75 54c-0.46 1.004-0.02 2.19 0.985 2.651C37.062 78.941 37.345 79 37.624 79c0.758 0 1.482-0.433 1.819-1.167l24.75-54C64.653 22.829 64.213 21.643 63.208 21.182z" fill="#77d4fc" data-fill-palette-color="accent"></path></svg></g></svg></g></svg></g></svg></g></svg></g></svg></g></svg></g><path d="M59.017 58.14L59.017 1 95.483 1 95.483 58.14 93.119 58.14 93.119 3.364 61.381 3.364 61.381 58.14 59.017 58.14M59.017 96.36L59.017 153.5 95.483 153.5 95.483 96.36 93.119 96.36 93.119 151.136 61.381 151.136 61.381 96.36 59.017 96.36" fill="#12a8ea" stroke="transparent" data-fill-palette-color="primary"></path></svg></g><defs></defs></svg><rect width="154.5" height="154.5" fill="none" stroke="none" visibility="hidden"></rect></g></svg></g></svg>